<mxfile host="app.diagrams.net" modified="2022-11-18T10:11:30.756Z" agent="5.0 (Macintosh; Intel Mac OS X 10_15_7) AppleWebKit/537.36 (KHTML, like Gecko) Chrome/107.0.0.0 Safari/537.36" etag="uc3IU7OUVKbicxdXWCac" version="20.5.3" type="github" pages="2">
  <diagram id="C5RBs43oDa-KdzZeNtuy" name="Page-1">
    <mxGraphModel dx="1358" dy="755" grid="1" gridSize="10" guides="1" tooltips="1" connect="1" arrows="1" fold="1" page="1" pageScale="1" pageWidth="2339" pageHeight="3300" math="0" shadow="0">
      <root>
        <mxCell id="WIyWlLk6GJQsqaUBKTNV-0" />
        <mxCell id="WIyWlLk6GJQsqaUBKTNV-1" parent="WIyWlLk6GJQsqaUBKTNV-0" />
        <mxCell id="9KIrp4HpUsfoCS3ftsVx-5" style="edgeStyle=orthogonalEdgeStyle;rounded=0;orthogonalLoop=1;jettySize=auto;html=1;entryX=0.5;entryY=0;entryDx=0;entryDy=0;entryPerimeter=0;" parent="WIyWlLk6GJQsqaUBKTNV-1" source="9KIrp4HpUsfoCS3ftsVx-0" target="9KIrp4HpUsfoCS3ftsVx-2" edge="1">
          <mxGeometry relative="1" as="geometry" />
        </mxCell>
        <mxCell id="9KIrp4HpUsfoCS3ftsVx-0" value="create event" style="strokeWidth=2;html=1;shape=mxgraph.flowchart.start_1;whiteSpace=wrap;fontSize=16;" parent="WIyWlLk6GJQsqaUBKTNV-1" vertex="1">
          <mxGeometry x="364" y="40" width="100" height="60" as="geometry" />
        </mxCell>
        <mxCell id="9KIrp4HpUsfoCS3ftsVx-1" style="edgeStyle=orthogonalEdgeStyle;rounded=0;orthogonalLoop=1;jettySize=auto;html=1;entryX=0;entryY=0.5;entryDx=0;entryDy=0;entryPerimeter=0;" parent="WIyWlLk6GJQsqaUBKTNV-1" source="9KIrp4HpUsfoCS3ftsVx-2" target="9KIrp4HpUsfoCS3ftsVx-4" edge="1">
          <mxGeometry relative="1" as="geometry">
            <mxPoint x="615" y="260" as="targetPoint" />
          </mxGeometry>
        </mxCell>
        <mxCell id="9KIrp4HpUsfoCS3ftsVx-7" style="rounded=0;orthogonalLoop=1;jettySize=auto;html=1;entryX=0.5;entryY=0;entryDx=0;entryDy=0;fontSize=16;" parent="WIyWlLk6GJQsqaUBKTNV-1" source="9KIrp4HpUsfoCS3ftsVx-2" target="9KIrp4HpUsfoCS3ftsVx-8" edge="1">
          <mxGeometry relative="1" as="geometry">
            <mxPoint x="414" y="280" as="targetPoint" />
          </mxGeometry>
        </mxCell>
        <mxCell id="9KIrp4HpUsfoCS3ftsVx-2" value="data validate" style="strokeWidth=2;html=1;shape=mxgraph.flowchart.decision;whiteSpace=wrap;fontSize=16;" parent="WIyWlLk6GJQsqaUBKTNV-1" vertex="1">
          <mxGeometry x="339" y="130" width="150" height="100" as="geometry" />
        </mxCell>
        <mxCell id="9KIrp4HpUsfoCS3ftsVx-3" value="N" style="text;html=1;align=center;verticalAlign=middle;resizable=0;points=[];autosize=1;strokeColor=none;fillColor=none;fontSize=16;" parent="WIyWlLk6GJQsqaUBKTNV-1" vertex="1">
          <mxGeometry x="489" y="150" width="40" height="30" as="geometry" />
        </mxCell>
        <mxCell id="9KIrp4HpUsfoCS3ftsVx-4" value="throw exception" style="strokeWidth=2;html=1;shape=mxgraph.flowchart.terminator;whiteSpace=wrap;fontSize=16;" parent="WIyWlLk6GJQsqaUBKTNV-1" vertex="1">
          <mxGeometry x="540" y="150" width="100" height="60" as="geometry" />
        </mxCell>
        <mxCell id="9KIrp4HpUsfoCS3ftsVx-10" style="edgeStyle=none;rounded=0;orthogonalLoop=1;jettySize=auto;html=1;entryX=0.5;entryY=0;entryDx=0;entryDy=0;fontSize=16;" parent="WIyWlLk6GJQsqaUBKTNV-1" source="9KIrp4HpUsfoCS3ftsVx-8" target="9KIrp4HpUsfoCS3ftsVx-9" edge="1">
          <mxGeometry relative="1" as="geometry" />
        </mxCell>
        <mxCell id="9KIrp4HpUsfoCS3ftsVx-8" value="EventVO" style="shape=parallelogram;html=1;strokeWidth=2;perimeter=parallelogramPerimeter;whiteSpace=wrap;rounded=1;arcSize=12;size=0.23;fontSize=16;" parent="WIyWlLk6GJQsqaUBKTNV-1" vertex="1">
          <mxGeometry x="364" y="280" width="100" height="60" as="geometry" />
        </mxCell>
        <mxCell id="9KIrp4HpUsfoCS3ftsVx-12" style="edgeStyle=none;rounded=0;orthogonalLoop=1;jettySize=auto;html=1;entryX=0;entryY=0.5;entryDx=0;entryDy=0;entryPerimeter=0;fontSize=16;" parent="WIyWlLk6GJQsqaUBKTNV-1" source="9KIrp4HpUsfoCS3ftsVx-9" target="9KIrp4HpUsfoCS3ftsVx-11" edge="1">
          <mxGeometry relative="1" as="geometry" />
        </mxCell>
        <mxCell id="0pwS5YVrlNoy_NpIZdrz-22" style="edgeStyle=orthogonalEdgeStyle;rounded=0;orthogonalLoop=1;jettySize=auto;html=1;entryX=0.5;entryY=0;entryDx=0;entryDy=0;" edge="1" parent="WIyWlLk6GJQsqaUBKTNV-1" source="9KIrp4HpUsfoCS3ftsVx-9" target="9KIrp4HpUsfoCS3ftsVx-24">
          <mxGeometry relative="1" as="geometry" />
        </mxCell>
        <mxCell id="9KIrp4HpUsfoCS3ftsVx-9" value="vo2do" style="rounded=1;whiteSpace=wrap;html=1;absoluteArcSize=1;arcSize=14;strokeWidth=2;fontSize=16;" parent="WIyWlLk6GJQsqaUBKTNV-1" vertex="1">
          <mxGeometry x="314" y="390" width="200" height="40" as="geometry" />
        </mxCell>
        <mxCell id="9KIrp4HpUsfoCS3ftsVx-11" value="event_metadata" style="strokeWidth=2;html=1;shape=mxgraph.flowchart.database;whiteSpace=wrap;fontSize=16;" parent="WIyWlLk6GJQsqaUBKTNV-1" vertex="1">
          <mxGeometry x="580" y="385" width="160" height="60" as="geometry" />
        </mxCell>
        <mxCell id="9KIrp4HpUsfoCS3ftsVx-26" style="edgeStyle=none;rounded=0;orthogonalLoop=1;jettySize=auto;html=1;entryX=0.5;entryY=0;entryDx=0;entryDy=0;fontSize=16;" parent="WIyWlLk6GJQsqaUBKTNV-1" source="9KIrp4HpUsfoCS3ftsVx-24" target="9KIrp4HpUsfoCS3ftsVx-25" edge="1">
          <mxGeometry relative="1" as="geometry" />
        </mxCell>
        <mxCell id="9KIrp4HpUsfoCS3ftsVx-24" value="根据存储的数据拼装VO" style="rounded=1;whiteSpace=wrap;html=1;absoluteArcSize=1;arcSize=14;strokeWidth=2;fontSize=16;" parent="WIyWlLk6GJQsqaUBKTNV-1" vertex="1">
          <mxGeometry x="284" y="500" width="260" height="40" as="geometry" />
        </mxCell>
        <mxCell id="9KIrp4HpUsfoCS3ftsVx-28" style="edgeStyle=none;rounded=0;orthogonalLoop=1;jettySize=auto;html=1;entryX=0.5;entryY=0;entryDx=0;entryDy=0;entryPerimeter=0;fontSize=16;" parent="WIyWlLk6GJQsqaUBKTNV-1" source="9KIrp4HpUsfoCS3ftsVx-25" target="9KIrp4HpUsfoCS3ftsVx-27" edge="1">
          <mxGeometry relative="1" as="geometry" />
        </mxCell>
        <mxCell id="9KIrp4HpUsfoCS3ftsVx-25" value="EventVO" style="shape=parallelogram;html=1;strokeWidth=2;perimeter=parallelogramPerimeter;whiteSpace=wrap;rounded=1;arcSize=12;size=0.23;fontSize=16;" parent="WIyWlLk6GJQsqaUBKTNV-1" vertex="1">
          <mxGeometry x="364" y="600" width="100" height="60" as="geometry" />
        </mxCell>
        <mxCell id="9KIrp4HpUsfoCS3ftsVx-27" value="End" style="strokeWidth=2;html=1;shape=mxgraph.flowchart.terminator;whiteSpace=wrap;fontSize=16;" parent="WIyWlLk6GJQsqaUBKTNV-1" vertex="1">
          <mxGeometry x="364" y="710" width="100" height="60" as="geometry" />
        </mxCell>
        <mxCell id="0pwS5YVrlNoy_NpIZdrz-0" style="edgeStyle=orthogonalEdgeStyle;rounded=0;orthogonalLoop=1;jettySize=auto;html=1;entryX=0.5;entryY=0;entryDx=0;entryDy=0;entryPerimeter=0;" edge="1" parent="WIyWlLk6GJQsqaUBKTNV-1" source="0pwS5YVrlNoy_NpIZdrz-1" target="0pwS5YVrlNoy_NpIZdrz-4">
          <mxGeometry relative="1" as="geometry" />
        </mxCell>
        <mxCell id="0pwS5YVrlNoy_NpIZdrz-1" value="create event property" style="strokeWidth=2;html=1;shape=mxgraph.flowchart.start_1;whiteSpace=wrap;fontSize=16;" vertex="1" parent="WIyWlLk6GJQsqaUBKTNV-1">
          <mxGeometry x="1010" y="40" width="100" height="60" as="geometry" />
        </mxCell>
        <mxCell id="0pwS5YVrlNoy_NpIZdrz-2" style="edgeStyle=orthogonalEdgeStyle;rounded=0;orthogonalLoop=1;jettySize=auto;html=1;entryX=0;entryY=0.5;entryDx=0;entryDy=0;entryPerimeter=0;" edge="1" parent="WIyWlLk6GJQsqaUBKTNV-1" source="0pwS5YVrlNoy_NpIZdrz-4" target="0pwS5YVrlNoy_NpIZdrz-6">
          <mxGeometry relative="1" as="geometry">
            <mxPoint x="1261" y="260" as="targetPoint" />
          </mxGeometry>
        </mxCell>
        <mxCell id="0pwS5YVrlNoy_NpIZdrz-3" style="rounded=0;orthogonalLoop=1;jettySize=auto;html=1;entryX=0.5;entryY=0;entryDx=0;entryDy=0;fontSize=16;" edge="1" parent="WIyWlLk6GJQsqaUBKTNV-1" source="0pwS5YVrlNoy_NpIZdrz-4" target="0pwS5YVrlNoy_NpIZdrz-8">
          <mxGeometry relative="1" as="geometry">
            <mxPoint x="1060" y="280" as="targetPoint" />
          </mxGeometry>
        </mxCell>
        <mxCell id="0pwS5YVrlNoy_NpIZdrz-4" value="data validate" style="strokeWidth=2;html=1;shape=mxgraph.flowchart.decision;whiteSpace=wrap;fontSize=16;" vertex="1" parent="WIyWlLk6GJQsqaUBKTNV-1">
          <mxGeometry x="985" y="130" width="150" height="100" as="geometry" />
        </mxCell>
        <mxCell id="0pwS5YVrlNoy_NpIZdrz-5" value="N" style="text;html=1;align=center;verticalAlign=middle;resizable=0;points=[];autosize=1;strokeColor=none;fillColor=none;fontSize=16;" vertex="1" parent="WIyWlLk6GJQsqaUBKTNV-1">
          <mxGeometry x="1135" y="150" width="40" height="30" as="geometry" />
        </mxCell>
        <mxCell id="0pwS5YVrlNoy_NpIZdrz-6" value="throw exception" style="strokeWidth=2;html=1;shape=mxgraph.flowchart.terminator;whiteSpace=wrap;fontSize=16;" vertex="1" parent="WIyWlLk6GJQsqaUBKTNV-1">
          <mxGeometry x="1186" y="150" width="100" height="60" as="geometry" />
        </mxCell>
        <mxCell id="0pwS5YVrlNoy_NpIZdrz-33" style="edgeStyle=orthogonalEdgeStyle;rounded=0;orthogonalLoop=1;jettySize=auto;html=1;entryX=0.5;entryY=0;entryDx=0;entryDy=0;fontSize=16;" edge="1" parent="WIyWlLk6GJQsqaUBKTNV-1" source="0pwS5YVrlNoy_NpIZdrz-8" target="0pwS5YVrlNoy_NpIZdrz-23">
          <mxGeometry relative="1" as="geometry" />
        </mxCell>
        <mxCell id="0pwS5YVrlNoy_NpIZdrz-8" value="EventPropertyVO" style="shape=parallelogram;html=1;strokeWidth=2;perimeter=parallelogramPerimeter;whiteSpace=wrap;rounded=1;arcSize=12;size=0.23;fontSize=16;" vertex="1" parent="WIyWlLk6GJQsqaUBKTNV-1">
          <mxGeometry x="985" y="280" width="150" height="60" as="geometry" />
        </mxCell>
        <mxCell id="0pwS5YVrlNoy_NpIZdrz-9" style="edgeStyle=none;rounded=0;orthogonalLoop=1;jettySize=auto;html=1;entryX=0;entryY=0.5;entryDx=0;entryDy=0;entryPerimeter=0;fontSize=16;" edge="1" parent="WIyWlLk6GJQsqaUBKTNV-1" source="0pwS5YVrlNoy_NpIZdrz-11" target="0pwS5YVrlNoy_NpIZdrz-12">
          <mxGeometry relative="1" as="geometry" />
        </mxCell>
        <mxCell id="0pwS5YVrlNoy_NpIZdrz-36" style="edgeStyle=orthogonalEdgeStyle;rounded=0;orthogonalLoop=1;jettySize=auto;html=1;entryX=0.5;entryY=0;entryDx=0;entryDy=0;fontSize=16;" edge="1" parent="WIyWlLk6GJQsqaUBKTNV-1" source="0pwS5YVrlNoy_NpIZdrz-11" target="0pwS5YVrlNoy_NpIZdrz-18">
          <mxGeometry relative="1" as="geometry" />
        </mxCell>
        <mxCell id="0pwS5YVrlNoy_NpIZdrz-11" value="vo2do" style="rounded=1;whiteSpace=wrap;html=1;absoluteArcSize=1;arcSize=14;strokeWidth=2;fontSize=16;" vertex="1" parent="WIyWlLk6GJQsqaUBKTNV-1">
          <mxGeometry x="960" y="520" width="200" height="50" as="geometry" />
        </mxCell>
        <mxCell id="0pwS5YVrlNoy_NpIZdrz-12" value="event_metadata" style="strokeWidth=2;html=1;shape=mxgraph.flowchart.database;whiteSpace=wrap;fontSize=16;" vertex="1" parent="WIyWlLk6GJQsqaUBKTNV-1">
          <mxGeometry x="1240" y="515" width="160" height="60" as="geometry" />
        </mxCell>
        <mxCell id="0pwS5YVrlNoy_NpIZdrz-17" style="edgeStyle=none;rounded=0;orthogonalLoop=1;jettySize=auto;html=1;entryX=0.5;entryY=0;entryDx=0;entryDy=0;fontSize=16;" edge="1" parent="WIyWlLk6GJQsqaUBKTNV-1" source="0pwS5YVrlNoy_NpIZdrz-18" target="0pwS5YVrlNoy_NpIZdrz-20">
          <mxGeometry relative="1" as="geometry" />
        </mxCell>
        <mxCell id="0pwS5YVrlNoy_NpIZdrz-18" value="根据存储的数据拼装VO" style="rounded=1;whiteSpace=wrap;html=1;absoluteArcSize=1;arcSize=14;strokeWidth=2;fontSize=16;" vertex="1" parent="WIyWlLk6GJQsqaUBKTNV-1">
          <mxGeometry x="930" y="620" width="260" height="40" as="geometry" />
        </mxCell>
        <mxCell id="0pwS5YVrlNoy_NpIZdrz-19" style="edgeStyle=none;rounded=0;orthogonalLoop=1;jettySize=auto;html=1;entryX=0.5;entryY=0;entryDx=0;entryDy=0;entryPerimeter=0;fontSize=16;" edge="1" parent="WIyWlLk6GJQsqaUBKTNV-1" source="0pwS5YVrlNoy_NpIZdrz-20" target="0pwS5YVrlNoy_NpIZdrz-21">
          <mxGeometry relative="1" as="geometry" />
        </mxCell>
        <mxCell id="0pwS5YVrlNoy_NpIZdrz-20" value="EventPropertyVO" style="shape=parallelogram;html=1;strokeWidth=2;perimeter=parallelogramPerimeter;whiteSpace=wrap;rounded=1;arcSize=12;size=0.23;fontSize=16;" vertex="1" parent="WIyWlLk6GJQsqaUBKTNV-1">
          <mxGeometry x="965" y="700" width="190" height="60" as="geometry" />
        </mxCell>
        <mxCell id="0pwS5YVrlNoy_NpIZdrz-21" value="End" style="strokeWidth=2;html=1;shape=mxgraph.flowchart.terminator;whiteSpace=wrap;fontSize=16;" vertex="1" parent="WIyWlLk6GJQsqaUBKTNV-1">
          <mxGeometry x="1010" y="800" width="100" height="60" as="geometry" />
        </mxCell>
        <mxCell id="0pwS5YVrlNoy_NpIZdrz-28" style="edgeStyle=orthogonalEdgeStyle;rounded=0;orthogonalLoop=1;jettySize=auto;html=1;entryX=0;entryY=0.5;entryDx=0;entryDy=0;entryPerimeter=0;" edge="1" parent="WIyWlLk6GJQsqaUBKTNV-1" source="0pwS5YVrlNoy_NpIZdrz-23" target="0pwS5YVrlNoy_NpIZdrz-27">
          <mxGeometry relative="1" as="geometry" />
        </mxCell>
        <mxCell id="0pwS5YVrlNoy_NpIZdrz-29" value="N" style="edgeLabel;html=1;align=center;verticalAlign=middle;resizable=0;points=[];fontSize=16;" vertex="1" connectable="0" parent="0pwS5YVrlNoy_NpIZdrz-28">
          <mxGeometry x="-0.2389" y="2" relative="1" as="geometry">
            <mxPoint as="offset" />
          </mxGeometry>
        </mxCell>
        <mxCell id="0pwS5YVrlNoy_NpIZdrz-34" style="edgeStyle=orthogonalEdgeStyle;rounded=0;orthogonalLoop=1;jettySize=auto;html=1;entryX=0.5;entryY=0;entryDx=0;entryDy=0;fontSize=16;" edge="1" parent="WIyWlLk6GJQsqaUBKTNV-1" source="0pwS5YVrlNoy_NpIZdrz-23" target="0pwS5YVrlNoy_NpIZdrz-11">
          <mxGeometry relative="1" as="geometry" />
        </mxCell>
        <mxCell id="0pwS5YVrlNoy_NpIZdrz-35" value="Y" style="edgeLabel;html=1;align=center;verticalAlign=middle;resizable=0;points=[];fontSize=16;" vertex="1" connectable="0" parent="0pwS5YVrlNoy_NpIZdrz-34">
          <mxGeometry x="-0.3114" relative="1" as="geometry">
            <mxPoint as="offset" />
          </mxGeometry>
        </mxCell>
        <mxCell id="0pwS5YVrlNoy_NpIZdrz-23" value="&lt;span style=&quot;font-size: 16px;&quot;&gt;validate event status&lt;/span&gt;" style="rhombus;whiteSpace=wrap;html=1;" vertex="1" parent="WIyWlLk6GJQsqaUBKTNV-1">
          <mxGeometry x="985" y="375" width="150" height="80" as="geometry" />
        </mxCell>
        <mxCell id="0pwS5YVrlNoy_NpIZdrz-27" value="throw exception" style="strokeWidth=2;html=1;shape=mxgraph.flowchart.terminator;whiteSpace=wrap;fontSize=16;" vertex="1" parent="WIyWlLk6GJQsqaUBKTNV-1">
          <mxGeometry x="1240" y="385" width="100" height="60" as="geometry" />
        </mxCell>
      </root>
    </mxGraphModel>
  </diagram>
  <diagram id="e0WGXzt5A53Ivpy_B9uT" name="第 2 页">
    <mxGraphModel dx="1426" dy="793" grid="1" gridSize="10" guides="1" tooltips="1" connect="1" arrows="1" fold="1" page="1" pageScale="1" pageWidth="3300" pageHeight="4681" math="0" shadow="0">
      <root>
        <mxCell id="0" />
        <mxCell id="1" parent="0" />
        <mxCell id="j7qJbWMXx4UtA2Yisks7-1" value="Facade" style="shape=umlLifeline;perimeter=lifelinePerimeter;whiteSpace=wrap;html=1;container=1;collapsible=0;recursiveResize=0;outlineConnect=0;" vertex="1" parent="1">
          <mxGeometry x="230" y="130" width="100" height="620" as="geometry" />
        </mxCell>
        <mxCell id="j7qJbWMXx4UtA2Yisks7-2" value="Service" style="shape=umlLifeline;perimeter=lifelinePerimeter;whiteSpace=wrap;html=1;container=1;collapsible=0;recursiveResize=0;outlineConnect=0;" vertex="1" parent="1">
          <mxGeometry x="470" y="130" width="100" height="580" as="geometry" />
        </mxCell>
        <mxCell id="j7qJbWMXx4UtA2Yisks7-10" value="" style="html=1;points=[];perimeter=orthogonalPerimeter;" vertex="1" parent="j7qJbWMXx4UtA2Yisks7-2">
          <mxGeometry x="45" y="60" width="10" height="450" as="geometry" />
        </mxCell>
        <mxCell id="j7qJbWMXx4UtA2Yisks7-12" value="return" style="html=1;verticalAlign=bottom;endArrow=open;dashed=1;endSize=8;exitX=0;exitY=0.95;rounded=0;" edge="1" source="j7qJbWMXx4UtA2Yisks7-10" parent="j7qJbWMXx4UtA2Yisks7-2">
          <mxGeometry relative="1" as="geometry">
            <mxPoint x="-190" y="492" as="targetPoint" />
          </mxGeometry>
        </mxCell>
        <mxCell id="j7qJbWMXx4UtA2Yisks7-20" value="校验基础数据" style="edgeStyle=orthogonalEdgeStyle;html=1;align=left;spacingLeft=2;endArrow=block;rounded=0;entryX=1;entryY=0;" edge="1" parent="j7qJbWMXx4UtA2Yisks7-2">
          <mxGeometry relative="1" as="geometry">
            <mxPoint x="50" y="70" as="sourcePoint" />
            <Array as="points">
              <mxPoint x="80" y="70" />
            </Array>
            <mxPoint x="55" y="90" as="targetPoint" />
          </mxGeometry>
        </mxCell>
        <mxCell id="j7qJbWMXx4UtA2Yisks7-26" value="拆分EventVO的数据为event_metadata和event_property" style="edgeStyle=orthogonalEdgeStyle;html=1;align=left;spacingLeft=2;endArrow=block;rounded=0;entryX=1;entryY=0;" edge="1" parent="j7qJbWMXx4UtA2Yisks7-2">
          <mxGeometry relative="1" as="geometry">
            <mxPoint x="50" y="130" as="sourcePoint" />
            <Array as="points">
              <mxPoint x="80" y="130" />
            </Array>
            <mxPoint x="55" y="150" as="targetPoint" />
          </mxGeometry>
        </mxCell>
        <mxCell id="j7qJbWMXx4UtA2Yisks7-32" value="组装返回的VO" style="edgeStyle=orthogonalEdgeStyle;html=1;align=left;spacingLeft=2;endArrow=block;rounded=0;entryX=1;entryY=0;" edge="1" parent="j7qJbWMXx4UtA2Yisks7-2">
          <mxGeometry relative="1" as="geometry">
            <mxPoint x="45" y="420" as="sourcePoint" />
            <Array as="points">
              <mxPoint x="75" y="420" />
            </Array>
            <mxPoint x="50" y="440" as="targetPoint" />
          </mxGeometry>
        </mxCell>
        <mxCell id="j7qJbWMXx4UtA2Yisks7-3" value="database" style="shape=umlLifeline;perimeter=lifelinePerimeter;whiteSpace=wrap;html=1;container=1;collapsible=0;recursiveResize=0;outlineConnect=0;" vertex="1" parent="1">
          <mxGeometry x="900" y="130" width="100" height="470" as="geometry" />
        </mxCell>
        <mxCell id="j7qJbWMXx4UtA2Yisks7-7" value="" style="html=1;points=[];perimeter=orthogonalPerimeter;" vertex="1" parent="j7qJbWMXx4UtA2Yisks7-3">
          <mxGeometry x="45" y="310" width="10" height="80" as="geometry" />
        </mxCell>
        <mxCell id="j7qJbWMXx4UtA2Yisks7-27" value="" style="html=1;points=[];perimeter=orthogonalPerimeter;" vertex="1" parent="j7qJbWMXx4UtA2Yisks7-3">
          <mxGeometry x="45" y="195" width="10" height="80" as="geometry" />
        </mxCell>
        <mxCell id="j7qJbWMXx4UtA2Yisks7-11" value="创建事件" style="html=1;verticalAlign=bottom;endArrow=block;entryX=0;entryY=0;rounded=0;" edge="1" target="j7qJbWMXx4UtA2Yisks7-10" parent="1" source="j7qJbWMXx4UtA2Yisks7-1">
          <mxGeometry relative="1" as="geometry">
            <mxPoint x="445" y="290" as="sourcePoint" />
          </mxGeometry>
        </mxCell>
        <mxCell id="j7qJbWMXx4UtA2Yisks7-8" value="" style="html=1;verticalAlign=bottom;endArrow=block;entryX=0;entryY=0;rounded=0;" edge="1" target="j7qJbWMXx4UtA2Yisks7-7" parent="1" source="j7qJbWMXx4UtA2Yisks7-2">
          <mxGeometry relative="1" as="geometry">
            <mxPoint x="725" y="220" as="sourcePoint" />
          </mxGeometry>
        </mxCell>
        <mxCell id="j7qJbWMXx4UtA2Yisks7-9" value="返回存储结果" style="html=1;verticalAlign=bottom;endArrow=open;dashed=1;endSize=8;exitX=0;exitY=0.95;rounded=0;" edge="1" source="j7qJbWMXx4UtA2Yisks7-7" parent="1" target="j7qJbWMXx4UtA2Yisks7-2">
          <mxGeometry relative="1" as="geometry">
            <mxPoint x="725" y="296" as="targetPoint" />
          </mxGeometry>
        </mxCell>
        <mxCell id="j7qJbWMXx4UtA2Yisks7-28" value="存储event_metadata" style="html=1;verticalAlign=bottom;endArrow=block;entryX=0;entryY=0;rounded=0;" edge="1" target="j7qJbWMXx4UtA2Yisks7-27" parent="1" source="j7qJbWMXx4UtA2Yisks7-2">
          <mxGeometry relative="1" as="geometry">
            <mxPoint x="875" y="325" as="sourcePoint" />
          </mxGeometry>
        </mxCell>
        <mxCell id="j7qJbWMXx4UtA2Yisks7-29" value="返回存储的结果" style="html=1;verticalAlign=bottom;endArrow=open;dashed=1;endSize=8;exitX=0;exitY=0.95;rounded=0;" edge="1" source="j7qJbWMXx4UtA2Yisks7-27" parent="1" target="j7qJbWMXx4UtA2Yisks7-2">
          <mxGeometry relative="1" as="geometry">
            <mxPoint x="875" y="401" as="targetPoint" />
          </mxGeometry>
        </mxCell>
        <mxCell id="j7qJbWMXx4UtA2Yisks7-30" value="存储event_property" style="text;html=1;align=center;verticalAlign=middle;resizable=0;points=[];autosize=1;strokeColor=none;fillColor=none;" vertex="1" parent="1">
          <mxGeometry x="675" y="420" width="130" height="30" as="geometry" />
        </mxCell>
      </root>
    </mxGraphModel>
  </diagram>
</mxfile>
